<?xml version="1.0" encoding="iso-8859-1"?>
<!-- Generator: Adobe Illustrator 19.0.0, SVG Export Plug-In . SVG Version: 6.00 Build 0)  -->
<svg version="1.1" id="Capa_1" xmlns="http://www.w3.org/2000/svg" xmlns:xlink="http://www.w3.org/1999/xlink" x="0px" y="0px"
	 viewBox="0 0 511.999 511.999" style="enable-background:new 0 0 511.999 511.999;" xml:space="preserve">
<path style="fill:#85E374;" d="M500.527,354.091c-5.169-21.416-25.795-40.792-55.999-57.209l0.15-0.27
	C367.763,217.888,301.236,150.061,281.27,10.099c-19.426,19.426-30.974,52.61-37.053,92.012c-0.15,0.95-0.29,1.89-0.43,2.849
	c-6.149,41.942-6.269,90.612-3.199,137.113l-0.14,1.64c-47.941-4.119-95.611-3.279-136.243,3.589
	c-32.082,5.404-70.873,16.504-93.882,39.512c147.531,24.965,208.939,98.671,295.912,185.634c53,53,112.248,26.275,152.82-14.187
	C485.78,431.597,508.766,388.245,500.527,354.091z"/>
<path style="fill:#FED42D;" d="M244.856,103.94c-30.101-23.248-69.864-49.762-105.939-68.047
	C87.307,9.739,43.845,0.061,23.839,18.617c-0.24,0.21-0.48,0.44-0.71,0.67C2.623,39.563,10.292,85.644,36.727,139.813
	c27.867,57.144,67.633,104.609,68.577,105.899l0.1,0.59l136.243-3.589l0.14-1.64l3.199-137.113L244.856,103.94z"/>
<path d="M302.866,296.723c-5.519,0-9.998,4.469-9.998,9.998c0,5.519,4.479,9.998,9.998,9.998c5.529,0,9.998-4.479,9.998-9.998
	C312.864,301.192,308.395,296.723,302.866,296.723z"/>
<path d="M451.301,289.341l-0.231-0.237c-75.493-77.268-140.692-144-160.152-280.417c-0.535-3.749-3.142-6.875-6.736-8.072
	c-3.595-1.2-7.555-0.265-10.232,2.415c-17.5,17.499-30.103,45.796-37.542,84.19c-29.301-21.532-62.111-42.867-94.422-59.243
	C106.013,9.744,46.143-14.934,16.206,11.754c-0.296,0.233-0.582,0.482-0.856,0.754c-0.247,0.229-0.488,0.458-0.699,0.669
	C-8.309,35.881-4.174,82.765,26.291,145.195c16.006,32.822,37.375,65.766,60.027,95.331c-37.414,8.149-65.416,21.32-83.316,39.218
	c-2.645,2.645-3.592,6.546-2.456,10.109s4.168,6.194,7.856,6.818c143.857,24.344,202.507,94.849,290.51,182.847
	c24.525,24.523,55.302,37.402,90.034,30.701c32.704-6.31,59.878-27.889,76.917-44.881c28.697-28.633,53.473-74.861,44.129-113.594
	C504.491,328.942,484.742,307.956,451.301,289.341z M274.97,34.777c20.251,107.071,68.796,170.507,127.476,232.758
	c-43.629-15.813-97.241-27.523-152.549-32.962C246.532,177.246,246.565,84.671,274.97,34.777z M228.984,216.2l-42.073-42.944
	l43.737-43.738C228.377,155.548,227.809,184.84,228.984,216.2z M216.558,232.088c-32.153-1.637-62.816-0.936-90.568,2.09
	l46.782-46.782L216.558,232.088z M226.861,105.028l-53.944,53.944l-27.988-28.566l48.727-48.727
	C204.647,88.996,215.755,96.812,226.861,105.028z M176.471,70.584l-45.537,45.537l-27.991-28.569l37.722-37.726
	C152.192,55.939,164.177,62.89,176.471,70.584z M121.826,40.386L88.949,73.267L38.491,21.764
	C55.411,16.43,84.605,22.895,121.826,40.386z M23.512,35.049l51.297,52.359l-36.411,36.415
	C20.842,84.202,15.568,52.494,23.512,35.049z M47.528,142.973l41.277-41.281l27.99,28.568l-48.793,48.794
	C60.388,166.812,53.523,154.73,47.528,142.973z M79.099,196.235l51.691-51.69l27.988,28.566l-56.007,56.007
	C94.418,218.249,86.49,207.244,79.099,196.235z M451.745,451.182c-15.062,15.022-38.841,34.052-66.583,39.404
	c-26.088,5.039-50.347-3.447-72.107-25.207C230.677,383.013,168.901,310.122,33.663,281.15
	c85.913-52.337,303.807-30.977,405.838,24.516c0,0,0.001,0,0.002,0.001c29.216,15.88,46.871,33.435,51.054,50.768
	C497.709,386.079,476.444,426.538,451.745,451.182z"/>
<path d="M448.914,354c-23.012-17.612-59.862-34.109-103.76-46.457v0.001l-0.737-0.213c-5.29-1.588-10.863,1.418-12.448,6.707
	c-1.585,5.29,1.418,10.863,6.707,12.448l0.9,0.26c0.054,0.017,0.108,0.032,0.163,0.048c56.017,15.755,84.831,33.757,97.021,43.087
	c4.376,3.347,10.651,2.534,14.016-1.864C454.134,363.632,453.299,357.357,448.914,354z"/>
<g>
</g>
<g>
</g>
<g>
</g>
<g>
</g>
<g>
</g>
<g>
</g>
<g>
</g>
<g>
</g>
<g>
</g>
<g>
</g>
<g>
</g>
<g>
</g>
<g>
</g>
<g>
</g>
<g>
</g>
</svg>
